<svg version="1.1" id="Layer_1" xmlns="http://www.w3.org/2000/svg" xmlns:xlink="http://www.w3.org/1999/xlink" x="0px" y="0px"
	 width="100%" viewBox="0 0 2250 2250" enable-background="new 0 0 2250 2250" xml:space="preserve">
<path fill="#586A52" opacity="1.000000" stroke="none" 
	d="
M990.000000,2252.000000 
	C660.036438,2252.000000 331.072906,2252.000000 2.054682,2252.000000 
	C2.054682,1502.119507 2.054682,752.239136 2.054682,2.179338 
	C751.797302,2.179338 1501.594727,2.179338 2251.696045,2.179338 
	C2251.696045,751.999878 2251.696045,1501.999878 2251.696045,2252.000000 
	C1831.571655,2252.000000 1411.285767,2252.000000 990.000000,2252.000000 
z"/>
<path fill="#D6B580" opacity="1.000000" stroke="none" 
	d="
M998.450928,1517.800781 
	C1000.441467,1511.811768 998.613281,1506.471436 998.641479,1501.240723 
	C998.812866,1469.479248 993.219543,1438.574951 983.974609,1408.303223 
	C977.275146,1386.366333 967.160889,1365.929810 955.516357,1346.237915 
	C954.195496,1344.004395 952.154663,1342.196655 949.812500,1340.127197 
	C947.684448,1339.568481 947.021790,1338.433350 946.416382,1336.377441 
	C946.044250,1335.787720 946.015808,1335.985229 946.114563,1335.999268 
	C945.647095,1335.594116 945.118408,1335.132202 944.308105,1334.205688 
	C943.983215,1333.790039 944.059509,1333.974487 944.151611,1333.936035 
	C930.749146,1323.668579 921.445801,1309.387573 909.326172,1297.804321 
	C895.442871,1284.535522 884.775696,1268.887329 874.970215,1252.331177 
	C868.262085,1241.005005 862.531738,1229.588013 858.414795,1216.442139 
	C857.986877,1215.833862 857.942505,1216.037964 858.044556,1216.060303 
	C855.804382,1214.086182 856.110107,1211.574341 856.403809,1208.313843 
	C856.044373,1207.215454 856.048157,1206.797485 855.747803,1205.831055 
	C855.128967,1204.697388 854.942993,1204.073730 854.594849,1203.016602 
	C854.093445,1200.833008 853.883057,1199.044312 853.359863,1196.407227 
	C851.001221,1194.161377 850.967224,1192.006104 850.579346,1189.311768 
	C849.331055,1182.529907 848.598145,1176.263184 847.446411,1170.074341 
	C841.119934,1136.079346 840.937927,1102.150024 846.932007,1068.021484 
	C854.190186,1026.696167 871.435120,990.217224 898.812988,958.660706 
	C920.441040,933.731506 946.783936,914.824951 976.826233,901.163574 
	C987.670349,896.232361 998.677429,891.659424 1009.634277,886.153931 
	C1004.418335,870.356567 995.255981,857.624634 987.059631,844.167480 
	C979.661133,832.020325 971.705017,828.881531 958.370056,830.083313 
	C943.278259,831.443420 922.947510,819.029846 919.416870,799.426758 
	C919.288391,798.008301 919.421204,797.323242 919.288452,796.694275 
	C917.691162,789.128540 918.043213,788.157715 925.303955,786.573730 
	C943.564331,782.590332 958.752014,787.969666 970.650879,802.343323 
	C972.966553,805.140625 974.718750,808.404419 977.327515,811.776733 
	C978.329285,812.197327 978.734253,812.294250 979.005798,811.780884 
	C979.512573,805.656616 976.499817,801.933167 972.996887,798.168884 
	C960.053467,784.259827 958.243408,768.358154 965.121399,751.070984 
	C965.611206,749.839966 966.045898,748.562927 966.716431,747.431946 
	C969.723694,742.359253 971.508972,742.229187 975.788635,746.282471 
	C980.928894,751.150940 983.937866,757.479553 988.297607,763.597900 
	C993.965515,771.656921 995.554993,780.678955 993.348328,789.022705 
	C989.554138,803.369324 990.180298,817.018250 994.426575,831.545410 
	C995.876648,837.672180 999.142822,842.308838 1002.378723,846.872070 
	C1008.761230,855.872620 1014.279968,865.241333 1017.562439,875.857666 
	C1018.303589,878.254944 1018.418091,881.192444 1021.177551,882.589294 
	C1024.718872,880.902039 1024.171997,877.789917 1024.045410,874.839661 
	C1022.966919,849.717468 1035.100830,832.428040 1056.475708,820.916870 
	C1059.836426,819.107056 1063.661865,815.222168 1068.373413,820.068726 
	C1076.616943,839.847778 1069.456665,856.140991 1058.262573,871.200012 
	C1053.357422,877.798767 1047.045166,883.359436 1039.350586,887.066711 
	C1031.192993,890.997070 1026.525024,897.813354 1026.247559,906.772888 
	C1025.953491,916.269653 1023.709656,925.082581 1019.810120,933.631775 
	C1018.136902,937.300232 1016.634888,941.132446 1020.788391,945.168091 
	C1021.488953,945.916260 1021.737488,946.177307 1022.040466,946.284119 
	C1033.856323,950.450012 1034.639526,950.114563 1035.358765,938.155273 
	C1037.183350,907.821594 1060.306274,879.864502 1091.767700,874.183350 
	C1096.952026,873.247253 1100.004883,871.266052 1102.137817,866.432312 
	C1108.982056,850.921265 1115.841064,835.370728 1125.953247,821.596436 
	C1128.071533,818.710815 1126.468628,816.678223 1125.182251,814.379822 
	C1118.964355,803.269836 1114.552490,791.589294 1112.495605,778.910767 
	C1110.523560,766.756104 1111.991821,754.904297 1115.232056,743.401978 
	C1119.232300,729.202026 1130.248291,724.109558 1144.023560,729.634155 
	C1148.895874,731.588257 1153.180786,732.522766 1158.324829,731.068665 
	C1163.491089,729.608398 1168.525146,731.465027 1172.031494,735.235779 
	C1175.860718,739.353638 1179.743774,741.929749 1185.616211,741.990540 
	C1187.873535,742.013855 1190.104858,744.561890 1193.046143,746.364685 
	C1202.070312,752.853882 1198.489746,763.584961 1203.600830,771.627441 
	C1203.973389,772.185730 1204.158325,772.035828 1204.083740,771.943115 
	C1204.009033,771.850403 1204.591797,772.590698 1204.958252,772.886841 
	C1208.945679,773.373718 1212.453735,773.835449 1215.388428,777.566711 
	C1221.739258,785.116211 1219.891357,792.341431 1215.715942,799.119690 
	C1203.047607,819.684875 1185.177734,832.010925 1160.419678,832.865356 
	C1135.283691,833.732849 1128.959595,838.402954 1121.154419,861.448181 
	C1119.424805,866.555054 1119.705078,870.520752 1125.377197,873.706421 
	C1133.796143,879.014832 1142.901855,881.582703 1150.417114,887.260925 
	C1153.712036,889.750366 1156.700317,887.805115 1159.413696,885.633606 
	C1166.945557,879.605774 1175.889404,876.815979 1185.165161,875.753113 
	C1201.284912,873.906006 1215.243896,879.375732 1227.203003,890.141052 
	C1228.928101,891.694031 1230.361816,893.566895 1232.046387,895.169678 
	C1237.481567,900.340881 1238.090576,900.313660 1243.023926,894.774475 
	C1249.687012,887.293152 1255.691895,879.408630 1259.415771,869.942627 
	C1262.975220,860.894348 1264.897827,852.134644 1263.123413,841.985657 
	C1259.999634,824.118225 1267.013062,809.386353 1281.309570,798.304382 
	C1283.721436,796.434753 1286.628174,793.433472 1290.205078,798.087158 
	C1303.330688,819.275574 1301.777466,832.996948 1284.898804,849.105164 
	C1284.176270,849.794739 1283.484009,850.516052 1282.777466,851.222412 
	C1283.342529,850.657166 1283.823120,849.952576 1284.486938,849.549500 
	C1289.633667,846.424377 1291.407349,837.520691 1300.520264,840.949707 
	C1311.750854,841.269287 1322.424438,841.761292 1333.225952,846.319824 
	C1339.187012,851.666748 1338.012939,857.176941 1334.108276,862.533813 
	C1322.253052,878.797852 1306.672363,886.338196 1286.474731,881.989136 
	C1279.713989,880.533447 1274.003174,881.377930 1269.085327,886.451355 
	C1264.858032,890.812317 1262.958862,895.230774 1268.550415,900.740784 
	C1283.163818,905.435791 1296.561035,911.276794 1309.348267,919.270203 
	C1310.171753,919.713379 1310.589966,920.482483 1311.628906,921.641357 
	C1312.098022,922.111633 1312.136108,921.905640 1312.033203,921.886230 
	C1312.395142,922.379150 1312.874268,922.877869 1313.750488,923.713013 
	C1314.133545,924.062927 1314.043823,923.861389 1313.942871,923.905945 
	C1327.116943,933.508545 1333.819458,947.621704 1340.014526,962.016907 
	C1350.565430,986.534485 1356.174927,1012.210327 1358.311523,1038.794434 
	C1358.919556,1046.360596 1357.462646,1053.812866 1358.404297,1062.092651 
	C1358.178955,1068.963989 1355.625122,1074.973511 1357.791260,1081.899414 
	C1354.173462,1105.953125 1360.944824,1125.951416 1377.504639,1143.597900 
	C1378.061035,1144.187012 1378.062012,1143.939331 1377.938232,1143.938477 
	C1380.360229,1146.274292 1382.749268,1148.769775 1385.628906,1151.689209 
	C1386.070190,1152.163208 1386.096191,1151.931396 1385.980225,1151.918213 
	C1386.487549,1152.542725 1387.165527,1153.116211 1388.516846,1153.865479 
	C1387.644165,1155.676758 1388.504761,1156.947632 1389.738037,1158.081177 
	C1392.536865,1160.653809 1395.141235,1163.480957 1399.286743,1165.000244 
	C1400.167358,1165.717651 1400.592041,1166.485840 1401.622559,1167.655762 
	C1402.082520,1168.136475 1402.106079,1167.914551 1401.995117,1167.902466 
	C1402.384277,1168.385864 1402.882690,1168.882812 1403.744141,1169.763062 
	C1404.109009,1170.144531 1404.121338,1169.891479 1403.994873,1169.884766 
	C1404.530884,1170.486572 1405.115723,1171.162964 1405.846558,1172.535889 
	C1406.059814,1173.173828 1406.030029,1172.939941 1405.913086,1172.954590 
	C1406.702271,1174.091309 1407.097168,1175.371216 1406.519775,1177.740601 
	C1403.941040,1178.783569 1401.823120,1178.894775 1398.907715,1178.965820 
	C1395.382446,1179.919800 1392.843262,1179.704224 1390.935547,1177.344116 
	C1380.513306,1164.450195 1366.478271,1154.940186 1357.083618,1141.066772 
	C1354.540527,1137.311157 1351.305786,1133.998291 1350.436401,1128.500977 
	C1350.014038,1127.824951 1349.953125,1128.023926 1350.052490,1128.054565 
	C1346.357300,1124.292603 1345.958252,1119.108276 1344.267090,1113.639771 
	C1343.136108,1096.056152 1344.036011,1079.256104 1345.014282,1062.387451 
	C1346.619751,1034.703003 1341.857544,1007.632324 1333.656982,980.271667 
	C1333.031372,979.073975 1332.770386,978.701050 1332.181152,977.729370 
	C1331.852905,977.130615 1332.136719,976.369385 1331.918701,976.026611 
	C1331.397705,975.387878 1331.094849,975.091858 1330.327393,974.362915 
	C1329.862549,973.929993 1329.864380,974.138916 1329.968750,974.138428 
	C1324.335327,963.411194 1320.313965,952.014221 1312.436890,942.132019 
	C1297.496338,923.388855 1277.319458,917.439331 1255.219727,915.519836 
	C1244.822876,914.616821 1239.718750,923.143005 1244.576782,932.712463 
	C1254.576782,935.821350 1263.419922,939.819946 1271.952637,946.094360 
	C1272.659668,946.273926 1272.983643,946.985291 1273.329468,947.167480 
	C1273.675293,947.349670 1273.908691,947.937317 1274.222900,947.971985 
	C1291.973389,959.805420 1296.369019,978.354309 1297.932129,997.240540 
	C1298.643555,1005.835999 1299.922607,1012.884766 1305.718506,1019.167358 
	C1316.027100,1030.341431 1322.734985,1043.381470 1325.580078,1059.148193 
	C1325.370239,1061.368652 1326.652466,1062.847290 1325.888550,1065.139648 
	C1326.600342,1092.634399 1309.718140,1113.688477 1282.214355,1118.109131 
	C1272.033569,1119.745483 1267.480957,1124.362793 1264.127197,1133.476074 
	C1256.721802,1153.599243 1238.529419,1164.534180 1218.009399,1162.688477 
	C1210.102539,1161.977173 1203.368042,1158.272949 1197.154907,1154.020264 
	C1188.832275,1148.323853 1182.059814,1150.677246 1173.414185,1154.200317 
	C1148.258545,1164.451782 1141.326172,1187.434082 1132.841919,1209.195068 
	C1120.665161,1240.426025 1115.435059,1272.976562 1113.816162,1306.582886 
	C1112.850220,1326.633423 1116.749878,1345.642212 1119.129395,1365.041626 
	C1120.307373,1374.645020 1117.698486,1377.590942 1107.258057,1375.055176 
	C1105.558105,1353.909668 1101.126953,1333.860962 1096.385376,1313.860107 
	C1095.844116,1311.577271 1095.491943,1309.291504 1092.874146,1307.367554 
	C1089.854126,1297.938477 1084.260010,1291.645630 1076.596680,1286.034424 
	C1058.988037,1273.141357 1047.217041,1256.196777 1045.081787,1233.087158 
	C1046.088501,1227.135986 1045.944458,1221.944336 1044.803955,1215.852295 
	C1044.887207,1214.943848 1045.348877,1214.945435 1045.120483,1215.004272 
	C1044.749634,1214.132324 1045.140381,1213.220703 1045.376709,1212.270630 
	C1047.104370,1205.326294 1048.104858,1204.342651 1054.489624,1205.638306 
	C1064.953735,1207.761841 1074.852051,1211.236328 1082.366089,1219.454224 
	C1083.693726,1220.906128 1085.282959,1222.118896 1087.398926,1223.647705 
	C1088.481323,1224.378540 1088.930542,1224.891357 1089.769287,1225.738525 
	C1090.146240,1226.083984 1090.022217,1225.883667 1089.921875,1225.945312 
	C1102.110962,1235.857422 1101.999023,1249.385864 1100.561157,1263.140503 
	C1100.098877,1267.563721 1098.672363,1271.887695 1098.885010,1274.747681 
	C1100.706543,1263.919312 1101.772095,1251.404297 1100.377319,1238.782227 
	C1100.243530,1237.572144 1101.491333,1236.428467 1102.966309,1234.982666 
	C1104.166748,1232.624512 1104.875366,1230.786987 1106.148071,1227.579834 
	C1105.850220,1227.024658 1105.289062,1226.939087 1105.340454,1225.010132 
	C1107.344727,1204.796875 1109.129028,1185.251709 1110.715820,1164.820801 
	C1107.940063,1156.477905 1102.605713,1157.498291 1096.253662,1159.730957 
	C1094.594482,1160.223633 1093.623779,1160.496704 1091.864258,1160.943726 
	C1068.216675,1166.168457 1049.547729,1159.537109 1034.622070,1140.362305 
	C1034.101562,1139.688965 1034.085571,1139.922852 1034.202637,1139.930420 
	C1028.600220,1133.096069 1021.121338,1131.975342 1012.713806,1132.668579 
	C991.343933,1134.430664 971.626526,1130.526611 955.704468,1114.747314 
	C952.674438,1111.744507 950.155884,1108.417358 948.404541,1103.588257 
	C948.047852,1102.843994 948.267944,1102.184937 948.005737,1101.957031 
	C944.887451,1099.857544 943.815125,1097.050171 943.607483,1093.135010 
	C943.527954,1091.063599 943.424683,1089.658691 942.807983,1087.321777 
	C942.000244,1084.837158 941.953247,1083.295044 942.804260,1081.282471 
	C945.229614,1070.258545 948.204346,1060.018555 955.647278,1051.902954 
	C958.647522,1048.631714 957.871399,1046.115112 955.753479,1043.161987 
	C951.666931,1037.463867 948.631653,1031.339478 946.482056,1024.570068 
	C939.842712,1003.662048 946.063049,985.906311 959.517700,970.072937 
	C965.749939,962.738892 973.426880,956.971375 981.885803,952.028687 
	C996.809143,943.308655 1007.500000,930.994995 1010.544434,912.501831 
	C1006.274353,904.772095 1000.589539,907.844666 995.529114,909.836060 
	C964.740906,921.952148 937.907837,940.034119 915.286682,964.196228 
	C881.316895,1000.480042 863.218018,1043.609131 858.546570,1093.029297 
	C856.624512,1113.362793 857.054016,1133.460083 858.854980,1154.322021 
	C859.444885,1156.420776 860.435425,1157.796753 859.836548,1160.114136 
	C859.515564,1170.383057 863.716492,1179.087036 865.003174,1189.050049 
	C865.763611,1190.645020 866.300537,1191.505981 867.110107,1193.047119 
	C871.849487,1218.807129 883.879395,1240.577881 897.733276,1261.353638 
	C906.467041,1274.451172 918.329102,1284.963989 929.065369,1296.416260 
	C935.489319,1303.268677 943.310608,1309.624146 947.552002,1319.508301 
	C947.970947,1320.192627 947.998779,1320.002319 947.903625,1319.988525 
	C959.972290,1330.464355 967.785645,1344.159546 975.208313,1358.002808 
	C999.496460,1403.299683 1011.508301,1451.854004 1012.893860,1503.129395 
	C1012.974731,1506.124756 1012.920959,1509.137939 1012.490784,1512.109375 
	C1011.189880,1521.095337 1007.676941,1522.754395 998.450928,1517.800781 
z"/>
<path fill="#262519" opacity="1.000000" stroke="none" 
	d="
M1106.924561,1375.077759 
	C1112.059326,1373.260864 1113.687012,1370.392578 1113.257812,1364.457275 
	C1112.347046,1351.859985 1110.160400,1339.516479 1108.031250,1327.128418 
	C1107.526489,1324.192017 1106.773193,1321.118652 1107.146240,1318.239380 
	C1110.000366,1296.200928 1108.650879,1273.815674 1113.853027,1251.915039 
	C1119.787598,1226.930420 1128.359253,1203.026123 1138.864014,1179.668701 
	C1144.197510,1167.809570 1151.053223,1158.161865 1163.825928,1153.203369 
	C1169.233643,1151.104004 1174.265869,1147.535278 1178.725830,1143.363403 
	C1183.584473,1138.818481 1184.219604,1137.589111 1189.787598,1143.578003 
	C1197.547241,1151.924316 1207.938110,1156.280640 1218.991577,1157.163452 
	C1242.453735,1159.037231 1257.589233,1142.848022 1261.601440,1122.218872 
	C1263.089355,1114.568481 1262.835205,1114.419800 1270.745605,1114.179932 
	C1285.998047,1113.717407 1299.279419,1108.867188 1309.771118,1097.347046 
	C1318.074707,1088.229736 1320.620483,1077.098022 1321.371338,1063.858643 
	C1319.461670,1043.327026 1312.766357,1026.427368 1297.416504,1014.188354 
	C1292.765015,1010.479553 1293.423584,1006.416748 1293.578979,1001.858459 
	C1294.259155,981.908386 1289.110962,963.980591 1274.857422,948.565430 
	C1284.712646,951.884033 1290.105347,960.538879 1294.047974,969.627625 
	C1298.800049,980.582520 1302.584595,992.192749 1301.932617,1004.395569 
	C1301.594482,1010.724731 1304.016846,1015.374451 1307.868530,1019.642700 
	C1321.734863,1035.008423 1329.732544,1052.811646 1330.420166,1073.625000 
	C1330.703613,1082.198730 1327.392090,1090.258423 1323.391235,1097.214355 
	C1314.542847,1112.597778 1301.820312,1123.479980 1282.669556,1123.271851 
	C1275.104614,1123.189453 1270.636719,1126.557373 1269.208008,1133.773438 
	C1266.435059,1147.778320 1256.301758,1156.455811 1245.459595,1163.255371 
	C1234.559204,1170.091431 1221.781494,1168.799561 1209.742920,1164.463623 
	C1206.326416,1163.233276 1202.736816,1161.735474 1200.035278,1159.417725 
	C1193.506104,1153.816162 1187.071899,1154.701904 1179.938721,1157.935303 
	C1169.956665,1162.459961 1158.789551,1165.598633 1153.672974,1176.424683 
	C1145.752319,1193.183838 1136.980469,1209.531128 1131.477173,1227.451782 
	C1126.787598,1242.722778 1124.163940,1258.370117 1120.509644,1273.823486 
	C1118.800781,1281.049805 1119.296875,1288.388672 1118.906128,1295.684570 
	C1117.808350,1316.183105 1115.183350,1336.706055 1121.785645,1356.916504 
	C1123.191406,1361.219360 1122.815063,1366.137939 1123.040649,1370.783447 
	C1123.271851,1375.545044 1123.269409,1380.590454 1117.628784,1382.380615 
	C1111.807861,1384.228027 1109.202759,1380.176270 1106.924561,1375.077759 
z"/>
<path fill="#262519" opacity="1.000000" stroke="none" 
	d="
M947.858032,1319.506104 
	C943.593628,1319.775024 942.640015,1315.499146 940.216125,1313.006104 
	C928.876831,1301.343506 917.699707,1289.512573 906.769775,1277.465088 
	C891.240967,1260.348267 879.439148,1240.959351 871.167175,1219.280273 
	C868.211731,1211.534668 864.632690,1204.041870 862.543091,1195.121826 
	C862.376587,1194.318115 863.164185,1193.773438 863.164185,1193.773438 
	C863.164185,1193.773438 862.888794,1192.856201 862.470947,1192.622314 
	C857.901428,1182.599731 857.330627,1171.966797 854.720215,1160.930664 
	C854.963745,1159.323608 855.069275,1158.542358 854.494507,1157.248535 
	C851.145630,1132.268799 850.621216,1107.776367 854.007568,1083.251099 
	C857.768494,1056.012695 865.917542,1030.248047 878.706848,1005.866455 
	C897.438599,970.156006 924.993225,942.941956 959.037415,922.044312 
	C973.483765,913.176636 988.921265,906.153198 1004.919312,900.469666 
	C1007.320740,899.616516 1009.902649,899.271179 1012.333130,898.706787 
	C1014.864319,903.373962 1011.758118,906.824890 1010.771484,911.137451 
	C1005.880371,911.464844 1001.464661,912.921265 998.439758,915.842773 
	C993.097595,921.002319 985.126221,920.422058 979.682861,925.884399 
	C977.027222,928.549316 970.882629,927.495422 966.709106,929.992371 
	C958.406677,934.959717 951.160828,941.253357 943.808533,947.432617 
	C940.757935,949.996582 938.085022,953.262878 934.636597,955.035095 
	C930.524658,957.148315 931.872131,961.715027 929.701538,963.833069 
	C927.357300,966.120544 922.158264,964.679016 919.993286,968.052185 
	C915.125549,975.636414 908.175232,981.458862 903.076050,988.819336 
	C894.807434,1000.754944 886.590088,1012.700989 881.088074,1026.270752 
	C871.844238,1049.068726 863.486633,1071.989502 862.715332,1097.091064 
	C862.390137,1107.671753 860.564514,1118.220215 860.795776,1128.886841 
	C861.221313,1148.514038 862.468262,1168.163574 867.863281,1187.033203 
	C871.830078,1200.907593 874.291870,1215.541626 881.556580,1228.186523 
	C887.587524,1238.683838 891.458862,1250.345825 900.008972,1259.628174 
	C904.517517,1264.522949 906.532410,1271.649902 913.281555,1274.911743 
	C914.358093,1275.432007 914.615784,1277.802246 915.097229,1279.364868 
	C916.013916,1282.339233 917.374695,1285.304688 920.364868,1286.256348 
	C926.461243,1288.196655 929.150208,1294.260376 934.425171,1297.125488 
	C936.572205,1298.291748 937.620178,1300.397217 937.723877,1302.940063 
	C937.848206,1305.987427 939.648621,1308.160034 942.410461,1308.713135 
	C948.598877,1309.952393 947.435608,1314.692505 947.858032,1319.506104 
z"/>
<path fill="#262519" opacity="1.000000" stroke="none" 
	d="
M1406.465088,1179.180908 
	C1405.910522,1177.405640 1405.762207,1176.138916 1405.704956,1173.920654 
	C1413.689331,1175.803833 1415.860352,1181.821899 1415.196411,1189.560059 
	C1414.491943,1197.772705 1411.288818,1204.517822 1403.489746,1207.938354 
	C1397.927124,1210.378174 1392.775146,1213.192749 1388.284302,1217.313232 
	C1384.797119,1220.512817 1383.147949,1224.084106 1384.246094,1228.875000 
	C1384.913452,1231.786621 1384.842529,1234.874756 1385.581055,1237.761353 
	C1387.926514,1246.929443 1386.842407,1255.479736 1382.042114,1263.700928 
	C1379.228882,1268.518921 1378.438599,1273.726196 1381.188232,1278.977661 
	C1384.049316,1284.441772 1382.662231,1289.406860 1379.105469,1293.852295 
	C1374.847046,1299.174683 1374.180298,1304.884399 1374.784302,1311.606812 
	C1375.756226,1322.427368 1378.235718,1333.089722 1375.443970,1344.321411 
	C1372.111084,1357.729980 1363.213623,1365.536133 1351.935425,1370.875732 
	C1341.958252,1375.599365 1331.205200,1375.621460 1319.860596,1374.868896 
	C1303.247803,1373.766724 1286.493530,1368.808594 1269.500244,1374.971313 
	C1263.901611,1377.001831 1257.347778,1376.657959 1251.413574,1379.426880 
	C1233.474365,1387.798096 1227.428833,1403.915527 1222.830811,1421.225952 
	C1219.668823,1433.130737 1217.411377,1445.171021 1216.183228,1457.446045 
	C1214.924683,1470.027100 1214.256714,1482.588989 1214.657593,1495.237183 
	C1214.846313,1501.193481 1214.135620,1507.173462 1214.005127,1513.146362 
	C1213.844849,1520.488525 1211.296021,1524.246704 1205.862427,1524.755371 
	C1200.292969,1525.276855 1198.236816,1522.954102 1196.463135,1513.735352 
	C1197.167480,1512.647339 1198.150757,1512.740601 1199.539307,1513.878174 
	C1204.793945,1515.715576 1205.828979,1512.948730 1205.776855,1509.019287 
	C1205.653442,1499.704590 1205.288574,1490.385132 1205.463501,1481.075928 
	C1205.971191,1454.046265 1208.743042,1427.399414 1217.953491,1401.664673 
	C1225.631348,1380.211914 1239.929321,1367.845947 1262.777100,1364.414307 
	C1280.430664,1361.762695 1297.877075,1361.803589 1315.410034,1364.267090 
	C1321.053589,1365.059937 1326.684448,1365.385498 1332.322510,1365.045410 
	C1351.015503,1363.917969 1366.709106,1348.297363 1368.050171,1329.613037 
	C1368.480225,1323.621338 1367.936035,1317.695801 1366.991821,1311.743530 
	C1365.491821,1302.288330 1363.316284,1292.899170 1371.911987,1284.772461 
	C1375.017578,1281.836304 1376.000244,1275.410034 1372.590820,1271.831299 
	C1366.824951,1265.779175 1369.567017,1261.217407 1373.294800,1256.158081 
	C1373.673950,1255.643433 1373.782837,1254.929810 1374.031250,1253.650146 
	C1373.689453,1252.335693 1373.333496,1251.679321 1373.994629,1250.554932 
	C1381.079956,1246.336304 1379.732666,1240.421265 1379.197021,1234.918579 
	C1378.978394,1232.671387 1377.584595,1230.562744 1376.942261,1228.328613 
	C1373.270508,1215.555542 1375.657959,1210.035400 1387.321777,1203.863281 
	C1390.256714,1202.310181 1393.023560,1200.427734 1396.001587,1198.970459 
	C1404.091064,1195.012085 1407.925537,1188.753906 1406.465088,1179.180908 
z"/>
<path fill="#262519" opacity="1.000000" stroke="none" 
	d="
M998.466919,1517.645752 
	C1006.605652,1517.173462 1007.389709,1516.640259 1007.241943,1509.761230 
	C1006.778625,1488.196289 1005.779480,1466.611816 1001.530273,1445.449219 
	C997.682556,1426.286377 992.500610,1407.409058 985.431885,1389.092896 
	C976.038574,1364.753296 963.221436,1342.365112 947.798096,1320.691895 
	C957.656250,1321.879517 959.309082,1332.027832 965.498474,1337.618774 
	C966.196594,1338.249512 966.274292,1339.585205 966.985779,1340.179932 
	C976.332825,1347.994019 978.022339,1359.966919 983.286255,1369.989990 
	C984.672974,1372.630371 985.909485,1375.374634 987.543518,1377.854858 
	C990.857666,1382.885254 992.903442,1388.174683 994.345886,1394.160156 
	C996.660889,1403.765991 999.809570,1413.430054 1004.341003,1422.169922 
	C1008.916870,1430.995483 1009.545105,1440.161621 1011.080444,1449.517578 
	C1013.193787,1462.395752 1013.180237,1475.761963 1018.656616,1487.991455 
	C1018.915771,1488.570190 1019.564575,1489.369263 1019.379578,1489.694946 
	C1014.059875,1499.055786 1018.456543,1509.386108 1016.393066,1519.068604 
	C1014.878784,1526.174072 1008.991821,1529.374146 1003.256165,1525.906982 
	C1000.457153,1524.215088 999.813904,1521.151611 998.466919,1517.645752 
z"/>
<path fill="#D6B580" opacity="1.000000" stroke="none" 
	d="
M1200.104492,1513.548950 
	C1199.103149,1514.238403 1198.221802,1513.973755 1196.742432,1513.341064 
	C1196.197510,1512.060547 1196.250610,1511.148193 1195.978271,1509.626953 
	C1197.973755,1500.148560 1196.418823,1491.139282 1196.522095,1482.201172 
	C1196.835083,1455.106079 1199.027100,1428.259644 1207.664917,1402.387085 
	C1213.010498,1386.375610 1220.317383,1371.331177 1235.982544,1362.725952 
	C1248.198364,1356.015625 1261.911377,1354.536743 1275.508911,1353.301025 
	C1288.485352,1352.121582 1301.398315,1352.885132 1314.321289,1354.953735 
	C1323.821045,1356.474243 1333.408447,1357.223999 1342.535767,1352.014038 
	C1355.700562,1344.498901 1362.060669,1332.660522 1358.933350,1317.787842 
	C1357.412476,1310.555664 1357.686035,1303.266113 1356.529663,1296.049927 
	C1355.595825,1290.222046 1357.524658,1284.799683 1362.536011,1281.022339 
	C1363.924438,1279.975708 1365.539307,1279.760132 1367.046387,1280.661865 
	C1367.759277,1282.713745 1366.556885,1283.917603 1365.562134,1285.206543 
	C1360.104004,1292.278931 1358.772217,1300.331299 1360.804688,1308.776001 
	C1362.461914,1315.661499 1362.322754,1322.571777 1362.832764,1329.520508 
	C1364.166138,1347.688599 1346.943970,1361.064697 1331.193726,1361.084717 
	C1322.570435,1361.095703 1313.929443,1360.256836 1305.325684,1359.476929 
	C1291.757812,1358.246826 1278.248169,1357.718872 1264.789429,1360.532471 
	C1259.906738,1361.553223 1254.859741,1361.913574 1250.072510,1363.241577 
	C1235.351562,1367.325195 1225.535767,1377.075928 1218.624268,1390.473022 
	C1211.962158,1403.386597 1209.212769,1417.360474 1206.216064,1431.317749 
	C1200.952271,1455.833496 1199.405640,1480.626343 1200.619263,1505.634277 
	C1200.731323,1507.942627 1200.367310,1510.274170 1200.104492,1513.548950 
z"/>
<path fill="#262519" opacity="1.000000" stroke="none" 
	d="
M1377.628296,1143.651855 
	C1372.888794,1144.771606 1370.757080,1140.766602 1368.088745,1137.576172 
	C1354.877808,1121.780396 1349.512817,1103.777222 1353.052368,1082.401978 
	C1351.922852,1076.535156 1352.176270,1071.532959 1353.134399,1065.927490 
	C1354.953979,1046.419556 1353.422241,1027.681274 1349.754639,1009.132080 
	C1345.124756,985.716919 1339.130615,962.749695 1326.724854,941.957764 
	C1323.139648,935.949158 1318.695312,930.646851 1314.115479,924.579224 
	C1320.857056,926.427429 1325.112305,932.081299 1328.995605,937.832153 
	C1343.264648,958.962830 1352.104370,982.278015 1357.188110,1007.247192 
	C1359.576172,1018.976013 1361.912109,1030.773193 1362.727051,1042.594849 
	C1363.622803,1055.591797 1364.091919,1068.785400 1362.140625,1081.853271 
	C1360.760132,1091.098999 1360.744873,1100.417603 1361.689087,1109.703613 
	C1362.368896,1116.388062 1363.661621,1122.938354 1369.558472,1127.334473 
	C1374.853760,1131.282349 1372.908691,1138.700806 1377.628296,1143.651855 
z"/>
<path fill="#262519" opacity="1.000000" stroke="none" 
	d="
M1125.521851,873.608521 
	C1120.938354,874.274475 1116.057861,874.274475 1110.075195,874.274475 
	C1116.448364,857.594177 1123.909180,842.989136 1132.895142,829.103088 
	C1135.262573,825.444763 1138.370117,826.034790 1141.648438,826.630493 
	C1152.570435,828.614929 1163.489014,828.502319 1174.187744,825.646729 
	C1194.946655,820.106079 1208.525635,806.709045 1215.444336,786.510986 
	C1216.168457,784.397217 1215.896606,781.942322 1216.041626,778.825317 
	C1223.739136,783.243225 1225.597412,789.938904 1221.949951,798.688293 
	C1219.366821,804.884766 1215.778076,810.260071 1211.989136,815.732239 
	C1207.634277,822.021790 1202.678345,826.645447 1195.455444,829.607239 
	C1182.723145,834.828003 1169.899414,838.689209 1155.966675,837.658752 
	C1152.665161,837.414612 1149.349609,837.265198 1146.039917,837.251953 
	C1142.906982,837.239441 1139.645264,838.103027 1138.408203,841.039246 
	C1134.917480,849.324463 1128.475708,855.876099 1125.255005,864.317871 
	C1124.087402,867.378418 1124.084229,870.062500 1125.521851,873.608521 
z"/>
<path fill="#262519" opacity="1.000000" stroke="none" 
	d="
M1021.292297,944.971558 
	C1016.603394,946.149841 1012.091492,947.715332 1007.180420,946.987793 
	C1006.079041,943.451599 1009.122253,941.564514 1010.566406,939.377502 
	C1017.751221,928.496521 1021.995605,916.618164 1021.465332,903.660156 
	C1021.072327,894.057190 1026.490112,887.994934 1033.393066,884.616760 
	C1057.983643,872.582947 1067.072876,852.033752 1068.052246,826.323303 
	C1068.103027,824.992798 1068.252563,823.666077 1068.509766,821.500488 
	C1074.256470,823.583557 1075.062500,829.074951 1075.211182,834.348572 
	C1075.740723,853.145203 1070.430542,869.637268 1055.618408,882.338867 
	C1050.313721,886.887634 1045.425293,891.703674 1038.833740,894.650879 
	C1033.634521,896.975525 1030.794067,902.551575 1030.618530,907.655212 
	C1030.172363,920.636902 1025.480347,932.299988 1021.292297,944.971558 
z"/>
<path fill="#262519" opacity="1.000000" stroke="none" 
	d="
M1269.007812,900.535034 
	C1263.719849,901.508728 1258.452026,901.740112 1251.716797,902.035889 
	C1258.296387,891.296326 1264.160034,881.687378 1274.180054,875.396301 
	C1277.138184,873.539124 1279.886963,874.679138 1282.715210,875.656982 
	C1306.355591,883.830994 1328.084595,872.125366 1334.285645,847.010376 
	C1342.800781,853.139709 1343.775269,857.803223 1338.102539,866.020630 
	C1337.347534,867.114319 1336.308472,868.092957 1335.847168,869.296021 
	C1329.559448,885.696350 1305.226440,892.035706 1289.607666,887.891235 
	C1277.823975,884.764404 1273.268555,887.544861 1269.007812,900.535034 
z"/>
<path fill="#262519" opacity="1.000000" stroke="none" 
	d="
M1245.040039,932.456299 
	C1240.831543,933.018799 1236.562378,934.345093 1231.911621,933.006165 
	C1233.125366,925.798157 1236.702148,919.944275 1240.404907,914.107300 
	C1242.542969,910.736877 1245.875244,910.634766 1249.172241,910.557129 
	C1278.028809,909.878113 1301.733887,919.818665 1317.842407,944.651428 
	C1323.414429,953.241394 1328.485107,962.206116 1330.188965,973.341187 
	C1326.475464,967.447510 1322.995483,960.585083 1319.098755,954.183716 
	C1308.229614,936.328308 1291.921265,925.531494 1271.041748,922.191956 
	C1268.124023,921.725342 1265.177734,922.369385 1262.164185,921.566040 
	C1251.600586,918.749878 1248.510620,920.702271 1245.040039,932.456299 
z"/>
<path fill="#262519" opacity="1.000000" stroke="none" 
	d="
M919.365662,799.299194 
	C922.647949,805.569275 926.537109,812.156311 932.868774,816.749207 
	C943.317261,824.328308 954.822205,827.918640 967.541077,823.707275 
	C972.038818,822.218018 974.935303,823.071411 977.974548,826.383972 
	C981.339233,830.051147 984.688721,833.523804 986.703064,838.281860 
	C990.980164,848.384705 999.195801,856.145020 1003.741028,866.151917 
	C1006.345825,871.886719 1009.065674,877.546509 1009.648193,884.661865 
	C1005.163391,880.243042 1004.091309,873.413025 1000.972229,867.545959 
	C995.119751,856.537292 985.550903,848.420044 979.334656,837.744324 
	C977.095947,833.899536 972.138123,834.695984 968.236755,834.857361 
	C958.723022,835.250732 949.685303,833.832581 941.176819,829.370300 
	C929.147034,823.061340 919.691956,814.912598 919.365662,799.299194 
z"/>
<path fill="#262519" opacity="1.000000" stroke="none" 
	d="
M948.256714,1103.630005 
	C952.360229,1106.897217 956.359558,1111.361450 961.042358,1114.928467 
	C976.390991,1126.619995 994.126892,1128.997070 1012.754211,1127.275391 
	C1014.723022,1127.093384 1016.696777,1126.751953 1018.614624,1126.270752 
	C1024.089478,1124.897339 1028.251709,1125.660156 1030.264160,1131.876465 
	C1031.042969,1134.282349 1033.102051,1136.273804 1034.448730,1139.196045 
	C1027.726196,1137.021240 1021.148682,1137.324219 1013.983337,1138.220093 
	C998.900146,1140.105713 984.427856,1137.001709 971.179443,1129.090210 
	C965.187683,1125.512085 959.492126,1121.652466 954.682739,1116.479858 
	C951.418762,1112.969360 948.759399,1109.358521 948.256714,1103.630005 
z"/>
<path fill="#262519" opacity="1.000000" stroke="none" 
	d="
M1092.229004,1155.444824 
	C1100.155762,1152.242065 1106.635376,1149.343994 1113.289673,1146.367920 
	C1115.095459,1152.303955 1111.463379,1157.239014 1110.773682,1163.270508 
	C1102.342407,1162.132812 1094.680176,1165.271729 1086.922363,1166.714722 
	C1066.587646,1170.497314 1042.701538,1158.813721 1034.200439,1140.397339 
	C1038.177246,1139.921021 1040.069702,1143.504761 1042.944458,1145.545288 
	C1057.450195,1155.842285 1073.132812,1160.326660 1092.229004,1155.444824 
z"/>
<path fill="#262519" opacity="1.000000" stroke="none" 
	d="
M858.285767,1216.586182 
	C863.821350,1222.804810 865.847168,1231.714844 869.840698,1239.618042 
	C881.704224,1263.095825 898.220886,1282.844360 916.529358,1301.361084 
	C926.315796,1311.258911 936.428650,1320.888794 944.290771,1333.186157 
	C937.734253,1333.441284 933.697754,1330.027710 930.253723,1324.408936 
	C924.894714,1315.666138 916.679260,1309.179443 909.837708,1301.588989 
	C900.127869,1290.816528 889.971130,1280.503662 882.692505,1267.717041 
	C878.293762,1259.989746 871.418457,1253.426270 868.220642,1245.327148 
	C864.625793,1236.222656 859.684570,1227.371460 858.285767,1216.586182 
z"/>
<path fill="#262519" opacity="1.000000" stroke="none" 
	d="
M1300.918701,840.642090 
	C1290.250977,847.288757 1280.017700,853.708679 1272.943970,864.283630 
	C1272.267578,859.424622 1273.059814,855.824524 1276.875244,852.648376 
	C1293.179321,839.075684 1297.642456,822.034363 1290.792480,801.984314 
	C1290.583862,801.373840 1290.616943,800.680725 1290.576660,799.291748 
	C1301.869263,805.875061 1302.944214,817.239929 1302.528198,829.061584 
	C1302.401733,832.657043 1301.445312,836.223389 1300.918701,840.642090 
z"/>
<path fill="#262519" opacity="1.000000" stroke="none" 
	d="
M1045.220825,1232.807373 
	C1049.248291,1250.734741 1057.488647,1266.386597 1072.800293,1277.985107 
	C1076.721924,1280.955566 1080.127930,1284.648315 1084.636841,1286.799683 
	C1088.135254,1288.468872 1088.718140,1291.829956 1089.700684,1294.915039 
	C1090.800537,1298.368042 1091.569092,1301.926514 1092.279419,1306.287964 
	C1089.699951,1300.292847 1085.284180,1295.274292 1079.144043,1291.368042 
	C1071.248779,1286.345215 1064.752686,1279.728882 1059.535278,1271.912842 
	C1059.167847,1271.362183 1058.838013,1270.730103 1058.334595,1270.334595 
	C1046.146729,1260.758545 1046.685181,1246.619629 1045.220825,1232.807373 
z"/>
<path fill="#262519" opacity="1.000000" stroke="none" 
	d="
M1350.171875,1128.592896 
	C1360.367065,1143.751221 1374.535278,1156.001343 1388.996704,1167.909668 
	C1392.423828,1170.731812 1394.777710,1174.222046 1397.735718,1178.280518 
	C1397.906250,1179.950317 1397.702271,1180.975220 1397.687256,1182.500977 
	C1398.802734,1184.829224 1397.477295,1185.495239 1395.512207,1186.235840 
	C1381.131714,1170.256714 1365.068481,1156.347046 1353.175781,1138.764893 
	C1351.200684,1135.844971 1351.019287,1132.570312 1350.171875,1128.592896 
z"/>
<path fill="#262519" opacity="1.000000" stroke="none" 
	d="
M1102.738770,1234.569824 
	C1104.814453,1254.329102 1102.105225,1273.914917 1100.230469,1295.625488 
	C1095.269775,1288.161743 1092.912720,1282.860840 1095.047974,1275.541382 
	C1099.873413,1259.000366 1098.602295,1242.759644 1089.878418,1226.744263 
	C1092.840820,1226.506348 1095.368652,1227.756226 1096.973022,1230.524170 
	C1098.130737,1232.521484 1099.431885,1234.394531 1102.738770,1234.569824 
z"/>
<path fill="#262519" opacity="1.000000" stroke="none" 
	d="
M994.562805,831.809692 
	C991.450989,826.196777 989.431274,819.960632 988.305115,813.417480 
	C987.226562,807.150818 986.981079,801.085266 989.220032,794.930481 
	C992.753967,785.215698 991.272461,775.417175 988.871155,764.821289 
	C997.534973,770.909180 997.687744,781.091187 996.475769,790.281189 
	C994.780579,803.135864 992.599731,815.702637 996.009521,828.529358 
	C996.221313,829.326111 995.474182,830.377808 994.562805,831.809692 
z"/>
<path fill="#D6B580" opacity="1.000000" stroke="none" 
	d="
M1394.489136,1186.946289 
	C1395.632935,1185.514526 1396.468262,1184.757446 1397.590088,1183.501099 
	C1402.152466,1182.258301 1403.742676,1184.508911 1402.267456,1188.061279 
	C1400.750977,1191.712769 1398.147827,1194.927856 1394.005737,1196.183105 
	C1389.450562,1197.563354 1385.782715,1200.494141 1381.976440,1203.114380 
	C1376.223022,1207.074829 1370.222168,1210.978882 1370.745605,1219.401001 
	C1370.824585,1220.673462 1369.994263,1222.041016 1368.386475,1222.115967 
	C1366.687744,1222.195068 1366.394775,1220.860107 1366.099731,1219.520630 
	C1364.861328,1213.897705 1366.461182,1208.958252 1369.913208,1204.610107 
	C1373.256836,1200.398560 1377.464844,1197.221680 1382.323364,1194.816284 
	C1386.466309,1192.765259 1390.801270,1190.959229 1394.489136,1186.946289 
z"/>
<path fill="#262519" opacity="1.000000" stroke="none" 
	d="
M1203.896484,771.441833 
	C1201.454102,771.526001 1200.937134,768.573730 1198.970459,767.553406 
	C1194.119263,765.036682 1191.992188,762.111267 1195.005981,756.614807 
	C1196.489502,753.909485 1195.117065,750.748291 1193.918823,747.336792 
	C1200.190796,748.904114 1201.758301,754.501282 1203.392212,760.147034 
	C1204.411377,763.668701 1203.810303,767.177979 1203.896484,771.441833 
z"/>
<path fill="#D6B580" opacity="1.000000" stroke="none" 
	d="
M1374.760986,1249.432129 
	C1374.925903,1250.595703 1374.839966,1251.104980 1374.399658,1252.302979 
	C1367.613525,1255.528564 1366.458008,1263.357788 1359.798096,1267.102539 
	C1357.159180,1255.172241 1367.274658,1250.387451 1371.112305,1242.648926 
	C1374.741211,1243.950073 1373.747192,1246.768311 1374.760986,1249.432129 
z"/>
<path fill="#262519" opacity="1.000000" stroke="none" 
	d="
M943.754272,1093.048462 
	C944.927979,1095.138306 946.224670,1097.807983 947.632446,1101.103271 
	C943.889587,1100.253052 942.923462,1097.398926 943.754272,1093.048462 
z"/>
<path fill="#262519" opacity="1.000000" stroke="none" 
	d="
M1344.348877,1113.698486 
	C1346.994019,1117.057007 1347.875854,1122.123901 1350.137695,1127.332275 
	C1346.170654,1124.412354 1345.592651,1119.373413 1344.348877,1113.698486 
z"/>
<path fill="#262519" opacity="1.000000" stroke="none" 
	d="
M1385.645508,1151.660400 
	C1381.659546,1151.813599 1379.327759,1148.798340 1377.574219,1144.643799 
	C1380.656982,1145.960938 1383.526978,1147.956055 1385.645508,1151.660400 
z"/>
<path fill="#262519" opacity="1.000000" stroke="none" 
	d="
M943.055298,1081.150879 
	C942.943298,1082.312866 942.771851,1083.839233 942.447510,1085.877686 
	C942.484619,1084.758789 941.641418,1082.979004 943.055298,1081.150879 
z"/>
<path fill="#262519" opacity="1.000000" stroke="none" 
	d="
M856.163513,1208.235718 
	C857.814636,1209.622559 857.353821,1212.329712 858.211548,1215.337524 
	C855.621704,1214.156860 855.853943,1211.523071 856.163513,1208.235718 
z"/>
<path fill="#262519" opacity="1.000000" stroke="none" 
	d="
M850.627808,1189.158936 
	C851.078247,1190.681274 851.899170,1192.601807 852.883484,1195.040527 
	C852.364075,1193.558228 851.681152,1191.557739 850.627808,1189.158936 
z"/>
<path fill="#262519" opacity="1.000000" stroke="none" 
	d="
M1105.872559,1224.137329 
	C1104.388306,1225.582520 1104.132202,1226.645996 1106.419678,1226.742188 
	C1107.108643,1225.318359 1107.044678,1224.533325 1105.872559,1224.137329 
z"/>
<path fill="#262519" opacity="1.000000" stroke="none" 
	d="
M946.231384,1336.443604 
	C947.715271,1336.009644 948.517151,1337.170776 949.126953,1339.328369 
	C948.257690,1339.075073 947.338135,1338.087402 946.231384,1336.443604 
z"/>
<path fill="#262519" opacity="1.000000" stroke="none" 
	d="
M854.833618,1202.629272 
	C854.639343,1203.266968 854.974854,1203.912476 855.377075,1204.920288 
	C856.511597,1204.367554 856.373047,1203.489014 854.833618,1202.629272 
z"/>
<path fill="#262519" opacity="1.000000" stroke="none" 
	d="
M1195.687256,1508.964600 
	C1195.652832,1509.018066 1195.575562,1509.007324 1195.589844,1509.011597 
	C1195.604248,1509.015869 1195.721558,1508.911011 1195.687256,1508.964600 
z"/>
<path fill="#262519" opacity="1.000000" stroke="none" 
	d="
M1204.921631,773.213501 
	C1204.774048,773.258118 1204.355835,773.057434 1204.039551,772.215698 
	C1203.785034,772.458435 1203.954956,772.922974 1204.921631,773.213501 
z"/>
<path fill="#262519" opacity="1.000000" stroke="none" 
	d="
M944.266724,1334.243652 
	C944.705505,1334.108154 945.427795,1334.426270 946.181641,1335.378906 
	C945.658997,1335.574585 945.104614,1335.135864 944.266724,1334.243652 
z"/>
<path fill="#262519" opacity="1.000000" stroke="none" 
	d="
M1311.604736,921.660767 
	C1311.390503,921.507690 1310.682861,920.903748 1309.951904,919.575623 
	C1310.322632,919.637634 1310.717041,920.423767 1311.604736,921.660767 
z"/>
<path fill="#262519" opacity="1.000000" stroke="none" 
	d="
M1313.622314,923.865479 
	C1313.478516,923.707886 1312.823486,923.352905 1312.049316,922.432312 
	C1312.323853,922.467163 1312.717529,923.067627 1313.622314,923.865479 
z"/>
<path fill="#262519" opacity="1.000000" stroke="none" 
	d="
M1273.258911,947.567139 
	C1273.313599,947.272278 1273.034790,947.076660 1272.749268,946.518372 
	C1272.659668,946.273926 1272.196411,947.095642 1272.196411,947.095642 
	C1272.196411,947.095642 1272.842529,947.784668 1273.258911,947.567139 
z"/>
<path fill="#262519" opacity="1.000000" stroke="none" 
	d="
M1330.300781,974.067322 
	C1330.396729,974.189941 1330.930786,974.449829 1331.582764,975.196777 
	C1331.675537,974.998657 1331.354980,974.505615 1330.300781,974.067322 
z"/>
<path fill="#262519" opacity="1.000000" stroke="none" 
	d="
M1089.646606,1225.869385 
	C1089.564941,1225.703857 1088.983521,1225.323853 1088.224365,1224.398438 
	C1088.413452,1224.453735 1088.780151,1225.054199 1089.646606,1225.869385 
z"/>
<path fill="#262519" opacity="1.000000" stroke="none" 
	d="
M1332.413208,977.256958 
	C1332.286255,977.575012 1332.677246,978.053772 1333.159180,979.006958 
	C1333.186157,978.759033 1333.079834,978.071167 1332.413208,977.256958 
z"/>
<path fill="#262519" opacity="1.000000" stroke="none" 
	d="
M1044.468506,1214.997803 
	C1044.430298,1215.061646 1044.678833,1214.997559 1044.552246,1214.969849 
	C1044.425537,1214.942139 1044.506714,1214.933838 1044.468506,1214.997803 
z"/>
<path fill="#262519" opacity="1.000000" stroke="none" 
	d="
M1405.669922,1172.641113 
	C1405.338257,1172.570068 1404.616699,1171.966187 1403.881714,1170.620361 
	C1404.338989,1170.621582 1404.809570,1171.364990 1405.669922,1172.641113 
z"/>
<path fill="#262519" opacity="1.000000" stroke="none" 
	d="
M1403.685059,1169.823364 
	C1403.417847,1169.803955 1402.726807,1169.463501 1401.959961,1168.506714 
	C1402.343140,1168.427612 1402.802002,1168.964966 1403.685059,1169.823364 
z"/>
<path fill="#262519" opacity="1.000000" stroke="none" 
	d="
M1401.646729,1167.639526 
	C1401.365967,1167.533936 1400.649292,1166.931519 1399.921387,1165.593994 
	C1400.343628,1165.620117 1400.777222,1166.381348 1401.646729,1167.639526 
z"/>
<path fill="#262519" opacity="1.000000" stroke="none" 
	d="
M1388.517944,1153.861450 
	C1388.062256,1154.419189 1387.120117,1154.184692 1386.090576,1152.648926 
	C1386.540527,1152.478760 1387.216797,1153.052612 1388.517944,1153.861450 
z"/>
<path fill="#586A52" opacity="1.000000" stroke="none" 
	d="
M1038.104980,965.832764 
	C1043.366577,975.897156 1050.838867,983.568970 1058.371094,991.007446 
	C1088.110474,1020.376343 1103.898071,1056.737793 1111.040039,1097.102173 
	C1112.916626,1107.709595 1110.223389,1118.944824 1111.605957,1129.888062 
	C1111.980103,1132.850220 1110.016235,1134.605591 1107.810669,1136.387939 
	C1079.915527,1158.929565 1042.058960,1146.161743 1032.917847,1117.765381 
	C1031.479492,1113.297241 1028.937256,1113.104736 1025.349609,1114.056885 
	C1018.930359,1115.760010 1012.587341,1117.770630 1005.848938,1117.960327 
	C992.685730,1118.330688 979.974121,1116.889526 968.325745,1108.641724 
	C966.885742,1106.904907 965.793945,1105.802856 964.249390,1104.332275 
	C963.813110,1103.947388 964.013062,1104.006348 963.983765,1104.106323 
	C953.973572,1089.652588 957.945312,1076.139038 967.145691,1063.114380 
	C974.624146,1052.527344 974.700378,1051.743042 967.231812,1041.459717 
	C953.927734,1023.141357 955.592407,1001.233521 970.259827,983.771790 
	C982.190979,969.567627 995.551941,959.759216 1015.034973,959.197388 
	C1023.609375,958.950073 1029.921509,963.441284 1038.104980,965.832764 
z"/>
<path fill="#586A52" opacity="1.000000" stroke="none" 
	d="
M1281.384644,978.920288 
	C1285.507202,987.054260 1285.135986,995.102112 1284.297363,1003.210388 
	C1283.901733,1007.034607 1282.289185,1010.803772 1283.985596,1015.406311 
	C1290.445068,1023.160461 1296.560425,1030.305542 1303.648193,1037.538940 
	C1304.184937,1038.019409 1303.987671,1038.021118 1303.986572,1037.922607 
	C1304.814209,1038.791626 1304.976562,1040.031372 1305.752319,1041.648804 
	C1306.147705,1042.115479 1305.923340,1042.035889 1305.962769,1041.923584 
	C1307.471436,1043.976685 1307.102295,1046.862061 1309.173828,1049.462646 
	C1309.553589,1049.984863 1310.069336,1050.669922 1310.023438,1051.096191 
	C1311.915649,1054.761597 1310.593140,1058.338013 1311.166748,1062.465942 
	C1311.384155,1065.164673 1311.469238,1067.129395 1311.221191,1070.048340 
	C1310.695679,1082.706421 1304.576660,1091.033203 1295.228760,1097.056763 
	C1284.780884,1103.789185 1273.107910,1105.621338 1260.789307,1104.502686 
	C1253.234985,1103.816650 1252.527954,1104.181152 1253.293579,1110.887817 
	C1256.070923,1135.213745 1229.673828,1160.252563 1200.309814,1141.082764 
	C1197.043091,1135.598145 1198.130249,1131.267334 1201.131226,1126.687012 
	C1210.590454,1112.250366 1214.744263,1095.902588 1216.948853,1079.067505 
	C1217.445923,1075.271606 1216.846802,1070.987061 1214.551270,1066.567139 
	C1212.320923,1061.555298 1208.496094,1061.838623 1204.826782,1061.739380 
	C1171.354370,1060.833374 1142.992676,1086.932861 1141.252319,1120.394165 
	C1140.837769,1128.363037 1140.565796,1136.462402 1142.289307,1144.244873 
	C1143.481201,1149.627197 1142.248657,1153.813477 1139.741089,1158.320923 
	C1135.870239,1165.278809 1132.441162,1172.482300 1128.313110,1180.110596 
	C1122.607056,1179.813843 1123.526123,1175.941895 1123.899170,1172.525757 
	C1126.571167,1148.055908 1127.472900,1123.565552 1125.885864,1098.959839 
	C1125.212158,1088.516113 1128.395874,1078.527100 1131.991211,1068.824585 
	C1134.289429,1062.622192 1139.066650,1058.436401 1144.889404,1055.549561 
	C1166.853394,1044.660034 1179.118164,1025.430298 1188.029053,1003.900330 
	C1191.895142,994.559509 1194.595093,984.399475 1194.136475,973.933960 
	C1193.803711,966.338867 1198.156128,961.387634 1203.593750,957.392395 
	C1220.152222,945.226135 1254.396851,941.287415 1272.720825,963.678162 
	C1275.286987,966.813721 1276.241821,970.872070 1279.722168,974.325378 
	C1280.145264,975.067566 1279.936401,975.096375 1279.921631,974.991943 
	C1280.284302,976.056274 1280.992188,977.112549 1281.384644,978.920288 
z"/>
<path fill="#586A52" opacity="1.000000" stroke="none" 
	d="
M1119.010010,1042.428467 
	C1119.494385,1043.991333 1119.925415,1044.952515 1120.418457,1046.704834 
	C1115.350708,1053.050171 1111.960449,1051.467773 1108.372437,1045.397095 
	C1097.242432,1026.566284 1096.008545,1005.697510 1095.181641,984.727600 
	C1094.028198,955.479370 1098.987427,927.055420 1106.715942,898.952942 
	C1108.853394,891.180603 1113.566040,888.908142 1120.670654,889.645081 
	C1129.351318,890.545532 1137.076904,894.285400 1144.088013,899.109009 
	C1155.975830,907.287659 1157.217407,908.001099 1168.105103,900.235107 
	C1185.438354,887.871643 1202.426636,889.958984 1219.735352,899.864563 
	C1224.011719,902.311768 1225.880615,906.722595 1229.370850,910.933350 
	C1227.304199,917.433960 1224.470825,923.085693 1222.337158,928.990234 
	C1220.983643,932.735657 1218.238159,934.148499 1215.006470,934.941528 
	C1201.360229,938.290344 1190.000732,945.492065 1180.066284,955.195251 
	C1177.589233,957.614563 1174.627808,958.773132 1171.177124,959.203003 
	C1140.306519,963.049194 1118.710205,989.711731 1118.038940,1022.994202 
	C1117.938599,1027.967407 1118.412598,1032.952271 1118.290283,1038.796265 
	C1118.455566,1040.307495 1118.787842,1041.029541 1119.010010,1042.428467 
z"/>
<path fill="#262519" opacity="1.000000" stroke="none" 
	d="
M1280.117554,974.252563 
	C1274.582520,970.390686 1271.014038,963.934692 1264.817871,959.595764 
	C1256.957520,954.091431 1248.204346,952.219604 1239.376953,951.955200 
	C1228.768677,951.637390 1218.156372,953.427734 1208.661743,959.153320 
	C1201.906982,963.226685 1197.931152,968.551025 1197.689819,976.851074 
	C1196.824341,1006.618591 1183.407227,1030.384033 1161.717041,1049.943604 
	C1157.043091,1054.158447 1152.268799,1058.242065 1146.018921,1060.340332 
	C1140.728516,1062.116455 1137.459717,1066.134644 1135.508789,1071.565063 
	C1130.352417,1085.916382 1128.333252,1100.650024 1129.626953,1115.779663 
	C1131.365479,1136.110229 1129.880249,1156.265503 1127.058838,1176.385498 
	C1126.923950,1177.347046 1127.190308,1178.365112 1127.535645,1179.998291 
	C1125.072266,1188.708496 1123.189697,1197.098022 1119.195312,1204.842163 
	C1116.123291,1203.639160 1117.087524,1201.558228 1117.201416,1199.786499 
	C1118.777100,1175.271362 1122.905029,1150.957397 1123.027954,1126.330566 
	C1123.049438,1122.021851 1123.248047,1117.609619 1122.449951,1113.419434 
	C1119.095947,1095.812866 1123.704590,1079.157104 1127.880737,1062.395142 
	C1129.025391,1057.800659 1131.859131,1055.341431 1135.947876,1053.102539 
	C1149.720581,1045.561401 1162.339111,1036.555542 1171.626465,1023.441589 
	C1183.928101,1006.071716 1190.325562,986.893433 1190.247437,965.623352 
	C1190.233398,961.796326 1190.384033,958.450073 1193.919678,955.969116 
	C1210.158325,944.574402 1227.596191,938.830688 1247.528320,943.996094 
	C1263.532349,948.143494 1274.033447,958.318115 1280.117554,974.252563 
z"/>
<path fill="#262519" opacity="1.000000" stroke="none" 
	d="
M1230.362793,911.345703 
	C1223.603882,906.299561 1217.389526,901.497498 1209.089233,898.788635 
	C1195.332642,894.299072 1183.037842,894.958191 1171.335449,903.573792 
	C1169.190796,905.152710 1167.121826,906.842285 1164.911255,908.321594 
	C1161.979370,910.283752 1158.827759,911.163940 1155.555176,909.114197 
	C1150.786499,906.127319 1145.260742,904.738525 1140.754517,900.983215 
	C1135.307617,896.444153 1128.294189,894.699829 1121.376831,893.646362 
	C1115.008423,892.676514 1112.694092,894.165894 1111.023926,900.159668 
	C1105.576294,919.708984 1101.279663,939.471191 1099.296021,959.746460 
	C1097.239014,980.771240 1099.391846,1001.572266 1101.658691,1022.369263 
	C1102.491211,1030.007568 1106.109009,1036.942993 1109.885620,1043.616577 
	C1111.836304,1047.063599 1114.653809,1049.174927 1119.711426,1047.802734 
	C1120.848755,1048.464111 1121.217163,1049.431885 1121.535767,1050.930908 
	C1120.644165,1053.499634 1117.645996,1054.277100 1118.244995,1057.806885 
	C1117.325073,1062.637207 1118.306274,1067.103394 1115.613403,1073.103760 
	C1113.502930,1068.002930 1111.597900,1064.431519 1110.536621,1060.625000 
	C1108.111328,1051.927490 1104.834839,1043.483154 1100.453003,1035.742188 
	C1094.852173,1025.848145 1092.906738,1015.139771 1092.055786,1004.346008 
	C1089.378052,970.379272 1090.426392,936.593140 1099.911743,903.525269 
	C1100.918945,900.014221 1101.901489,896.487976 1103.113281,893.045288 
	C1106.843994,882.446228 1106.921997,882.192139 1117.776855,883.685303 
	C1129.210693,885.257996 1139.196655,890.418701 1148.393311,897.282227 
	C1154.958740,902.182068 1154.956543,901.976990 1161.356079,896.804321 
	C1184.977173,877.711731 1215.201782,883.242126 1230.459961,907.294739 
	C1231.223633,908.498779 1231.501831,909.688721 1230.362793,911.345703 
z"/>
<path fill="#586A52" opacity="1.000000" stroke="none" 
	d="
M1090.914673,894.548828 
	C1089.539917,904.642334 1087.549316,914.010193 1085.669067,923.400208 
	C1081.146729,945.986877 1080.988037,968.809509 1082.041748,991.698120 
	C1082.190063,994.919617 1083.286377,998.205933 1081.007324,1002.796204 
	C1072.072144,994.130188 1064.323975,985.045105 1056.070801,975.792908 
	C1037.768433,939.332214 1053.676758,913.594177 1079.406250,894.288635 
	C1082.919189,891.652832 1086.578125,891.012024 1090.914673,894.548828 
z"/>
<path fill="#262519" opacity="1.000000" stroke="none" 
	d="
M1038.701782,965.216797 
	C1035.392944,968.759644 1032.031128,966.671875 1028.562256,965.707214 
	C1011.149719,960.865051 995.839539,964.892456 982.741150,977.135376 
	C976.192871,983.255920 970.525696,990.034485 965.815369,997.867615 
	C959.125793,1008.992004 961.179688,1032.548218 972.151062,1043.118896 
	C977.775208,1048.537598 978.141357,1058.030396 972.797363,1063.948975 
	C962.590088,1075.253540 959.261230,1087.909424 963.835205,1103.369385 
	C953.693176,1096.729614 950.460999,1086.469116 954.901978,1073.889038 
	C957.656738,1066.085571 961.499695,1058.633301 967.391724,1052.788940 
	C971.508850,1048.704956 969.920044,1046.067139 966.479614,1042.347412 
	C965.774170,1041.488647 965.401489,1041.259033 964.702209,1040.459961 
	C944.603149,1015.856445 954.699829,986.892273 972.509583,971.770691 
	C990.866394,956.184509 1010.665344,951.403748 1033.325195,960.345520 
	C1035.425659,961.174377 1037.880493,961.693787 1038.701782,965.216797 
z"/>
<path fill="#586A52" opacity="1.000000" stroke="none" 
	d="
M1195.590820,781.340942 
	C1199.254761,784.940552 1203.303955,782.029907 1206.386353,783.492249 
	C1207.897949,784.763855 1207.551758,786.100281 1206.839844,787.195557 
	C1194.863403,805.622192 1179.482544,818.465759 1156.033691,817.986206 
	C1154.382568,817.952454 1152.728760,818.040710 1150.149414,817.880371 
	C1146.333008,814.596802 1146.579468,811.482239 1148.457153,807.812500 
	C1155.244263,794.547852 1165.012695,784.413086 1178.523315,777.966125 
	C1184.692505,775.022339 1190.388672,774.544800 1195.590820,781.340942 
z"/>
<path fill="#262519" opacity="1.000000" stroke="none" 
	d="
M1164.118408,1117.294189 
	C1159.770874,1124.471069 1156.072754,1131.286133 1151.984131,1138.820923 
	C1145.815063,1119.480225 1155.465210,1093.409912 1171.275513,1082.437012 
	C1178.115723,1077.689697 1185.389404,1073.717163 1193.748779,1072.328125 
	C1202.515381,1070.871338 1207.354004,1071.096558 1201.934570,1082.659912 
	C1198.729492,1088.743164 1193.045166,1090.118896 1188.323853,1092.899292 
	C1178.340942,1098.777832 1167.992065,1104.391846 1164.118408,1117.294189 
z"/>
<path fill="#262519" opacity="1.000000" stroke="none" 
	d="
M1091.879395,894.697754 
	C1072.903931,899.930603 1052.565186,923.530640 1051.932007,945.126221 
	C1051.645874,954.877869 1052.753296,964.246765 1055.873535,974.317017 
	C1051.833984,971.463379 1049.218994,966.688049 1046.634521,961.030029 
	C1046.647461,959.960144 1046.864746,959.612549 1046.617920,958.861572 
	C1036.859863,925.001953 1065.218750,885.984985 1095.864502,884.539551 
	C1096.938721,888.593384 1093.682617,891.054199 1091.879395,894.697754 
z"/>
<path fill="#586A52" opacity="1.000000" stroke="none" 
	d="
M1179.575562,976.918701 
	C1178.395386,991.675293 1172.980347,1004.297791 1164.379395,1016.312134 
	C1158.464478,1016.783203 1159.299805,1012.507080 1158.184204,1008.692139 
	C1150.262085,1001.741028 1149.698486,1001.763916 1144.233398,1009.672485 
	C1141.591187,1013.496155 1139.193726,1017.489075 1136.159912,1021.882935 
	C1130.739014,1021.614868 1131.437500,1017.610718 1132.138550,1014.845825 
	C1137.028809,995.557312 1148.317871,981.707520 1167.532104,975.177246 
	C1171.321533,973.889404 1175.465332,973.017395 1179.575562,976.918701 
z"/>
<path fill="#586A52" opacity="1.000000" stroke="none" 
	d="
M1152.892700,752.936707 
	C1155.821655,765.762878 1152.627197,776.439087 1144.983154,785.955933 
	C1142.303101,789.292419 1139.720581,792.707214 1136.406982,796.294128 
	C1130.099243,798.290283 1129.365967,793.753723 1128.370850,790.370667 
	C1125.371948,780.174927 1125.721191,769.754883 1127.530151,759.426208 
	C1128.479858,754.003723 1129.042236,747.762695 1135.939331,746.170837 
	C1142.534790,744.648621 1148.337036,746.108582 1152.892700,752.936707 
z"/>
<path fill="#262519" opacity="1.000000" stroke="none" 
	d="
M1153.536621,752.946289 
	C1136.743164,745.589722 1133.042725,747.753723 1130.601562,766.221863 
	C1129.721802,772.877319 1130.290161,779.438293 1130.534302,786.018982 
	C1130.665649,789.557190 1131.104370,793.393860 1135.041504,796.209656 
	C1135.420776,800.146912 1134.808716,803.712952 1132.727295,807.767517 
	C1126.285767,799.453125 1123.828857,790.036804 1122.272949,780.465759 
	C1120.727051,770.956482 1120.839355,761.332886 1123.002808,751.833069 
	C1124.446899,745.491516 1126.453735,739.081177 1133.674683,737.739929 
	C1140.865845,736.404175 1146.386841,740.475708 1150.567993,746.062805 
	C1151.913086,747.860229 1152.556885,750.182312 1153.536621,752.946289 
z"/>
<path fill="#262519" opacity="1.000000" stroke="none" 
	d="
M1180.432861,976.989868 
	C1157.588135,978.202271 1137.100586,999.830444 1135.458008,1021.717712 
	C1133.871704,1026.578735 1132.109009,1030.796997 1130.281372,1035.170654 
	C1126.549316,1033.511597 1127.700439,1030.433472 1127.527222,1028.218872 
	C1125.537476,1002.772278 1141.216187,973.097534 1173.859131,968.817505 
	C1181.651978,967.795715 1181.827881,967.846436 1180.432861,976.989868 
z"/>
<path fill="#586A52" opacity="1.000000" stroke="none" 
	d="
M1164.129883,1117.426025 
	C1162.351807,1111.203125 1164.806641,1106.028931 1168.941772,1101.245605 
	C1177.225098,1091.663696 1186.554565,1084.014893 1200.680420,1083.205200 
	C1200.730957,1094.537964 1197.042480,1104.745850 1189.930176,1114.371094 
	C1185.757202,1116.347778 1184.482666,1114.081665 1183.145142,1110.796631 
	C1175.927368,1103.758179 1175.825562,1103.769409 1170.356445,1110.529907 
	C1168.536011,1112.780151 1166.647949,1114.975708 1164.129883,1117.426025 
z"/>
<path fill="#262519" opacity="1.000000" stroke="none" 
	d="
M1196.064331,781.198975 
	C1187.184082,778.888184 1179.601196,781.425964 1172.357666,787.182678 
	C1162.400146,795.096130 1153.804932,803.885010 1149.469482,816.984131 
	C1140.918335,817.672363 1139.624146,816.149231 1142.722412,808.979980 
	C1149.707886,792.815735 1161.388550,780.857178 1176.983643,772.963989 
	C1185.579590,768.613342 1191.748169,771.419861 1196.064331,781.198975 
z"/>
<path fill="#262519" opacity="1.000000" stroke="none" 
	d="
M1213.719727,1066.734375 
	C1219.503418,1069.069336 1220.018188,1074.484253 1219.698120,1079.762451 
	C1218.755127,1095.313354 1215.895630,1110.393555 1207.791016,1124.100952 
	C1204.961914,1128.885864 1201.390869,1133.362427 1200.103760,1139.756836 
	C1198.821655,1139.797607 1197.558594,1139.263672 1196.591919,1138.398560 
	C1190.729248,1133.152588 1190.449097,1132.924561 1194.760132,1126.488647 
	C1206.727661,1108.622559 1212.632568,1088.931641 1213.719727,1066.734375 
z"/>
<path fill="#262519" opacity="1.000000" stroke="none" 
	d="
M1066.297607,1243.934204 
	C1064.739502,1246.955444 1065.869873,1248.685303 1067.439819,1250.683716 
	C1071.865112,1256.316406 1075.632202,1262.370483 1078.010986,1270.117310 
	C1072.318359,1269.113037 1070.524902,1264.833008 1068.018433,1261.748535 
	C1058.696655,1250.276978 1054.821289,1236.718628 1054.124756,1222.203247 
	C1053.843140,1216.332153 1055.646851,1215.175537 1061.494995,1216.868286 
	C1072.292969,1219.993286 1080.196655,1226.601929 1085.171631,1237.614502 
	C1082.958618,1242.218994 1079.954468,1242.103394 1076.420410,1239.735962 
	C1071.579590,1236.493530 1068.796387,1239.103638 1066.297607,1243.934204 
z"/>
<path fill="#262519" opacity="1.000000" stroke="none" 
	d="
M1295.596313,869.156250 
	C1291.062988,869.821472 1287.505371,869.479431 1283.843384,866.998108 
	C1285.955566,858.584106 1292.960815,855.615356 1300.032349,853.063843 
	C1306.053955,850.891174 1312.412842,850.924927 1318.735474,851.795166 
	C1320.434692,852.029114 1322.302612,852.516052 1322.407349,854.434631 
	C1322.464233,855.476990 1321.405762,856.865601 1320.469116,857.631470 
	C1313.401245,863.409912 1305.356689,867.201416 1295.596313,869.156250 
z"/>
<path fill="#262519" opacity="1.000000" stroke="none" 
	d="
M1051.490479,853.478882 
	C1046.325684,861.011292 1042.233521,868.568542 1034.654053,873.544861 
	C1032.069946,857.451294 1041.949951,840.692810 1058.818115,832.628540 
	C1058.637451,840.409241 1055.201416,846.605347 1051.490479,853.478882 
z"/>
<path fill="#586A52" opacity="1.000000" stroke="none" 
	d="
M1066.571411,1244.320801 
	C1065.063354,1242.294067 1064.144775,1240.174805 1063.518066,1237.972412 
	C1062.809937,1235.484741 1061.682129,1232.640015 1064.336060,1230.732056 
	C1066.745239,1229.000122 1069.408813,1230.138794 1071.812988,1231.263794 
	C1075.961548,1233.205444 1079.378662,1236.520508 1084.674561,1238.042847 
	C1089.937378,1247.187744 1090.635620,1256.472046 1088.967041,1266.553711 
	C1084.871826,1266.527466 1083.737305,1263.766968 1082.468506,1261.163452 
	C1080.005127,1256.108398 1077.196777,1251.188477 1075.162720,1245.966553 
	C1073.199097,1240.925659 1070.337769,1242.839478 1066.571411,1244.320801 
z"/>
<path fill="#262519" opacity="1.000000" stroke="none" 
	d="
M1163.480469,755.030273 
	C1162.831665,750.909790 1161.787476,747.790955 1160.182739,744.835144 
	C1159.524292,743.622253 1159.471802,742.182373 1160.751221,741.279358 
	C1161.940796,740.439758 1163.276367,740.958435 1164.501587,741.434692 
	C1168.103394,742.834534 1169.308105,745.671021 1169.337646,749.320984 
	C1169.360596,752.166443 1168.252808,755.214966 1171.014526,758.366943 
	C1174.068604,756.630432 1175.842285,752.998413 1179.298706,751.867065 
	C1181.605103,751.112061 1184.011841,750.676758 1185.544556,753.044922 
	C1186.851807,755.064880 1185.415771,756.709229 1184.175537,758.353699 
	C1182.972778,759.948547 1182.006104,761.600769 1179.792114,762.043518 
	C1174.279785,763.145569 1169.180908,765.282288 1163.587402,771.261597 
	C1163.587402,764.303406 1163.587402,760.075378 1163.480469,755.030273 
z"/>
<path fill="#262519" opacity="1.000000" stroke="none" 
	d="
M1182.544922,1110.866699 
	C1184.625488,1111.573486 1186.421753,1112.935547 1188.745361,1114.533813 
	C1185.151733,1125.382812 1173.437988,1138.035645 1161.015137,1145.293091 
	C1160.981323,1139.558350 1167.696045,1128.884766 1182.544922,1110.866699 
z"/>
<path fill="#262519" opacity="1.000000" stroke="none" 
	d="
M1157.504883,1008.664368 
	C1161.139526,1009.409729 1161.789551,1012.670349 1163.418823,1016.115356 
	C1157.243164,1026.736328 1149.111572,1035.156372 1138.948608,1042.101196 
	C1139.241211,1034.003052 1146.769897,1020.682800 1157.504883,1008.664368 
z"/>
<path fill="#262519" opacity="1.000000" stroke="none" 
	d="
M1279.800537,835.733582 
	C1277.568481,838.829468 1277.104370,842.526489 1273.468262,843.732422 
	C1269.925903,830.496460 1273.567871,819.028259 1284.072510,810.917419 
	C1288.169067,820.083618 1282.874146,827.387390 1279.800537,835.733582 
z"/>
<path fill="#262519" opacity="1.000000" stroke="none" 
	d="
M940.416077,809.474243 
	C935.514099,806.460266 928.973206,802.220642 931.048401,797.893188 
	C933.648010,792.472107 940.950134,795.713806 946.206909,796.848816 
	C953.894470,798.508728 960.044312,802.829285 964.841797,808.960144 
	C966.219543,810.720764 967.678833,813.231201 962.974731,813.859863 
	C955.100098,813.371338 948.998779,807.137207 940.416077,809.474243 
z"/>
<path fill="#262519" opacity="1.000000" stroke="none" 
	d="
M976.430176,788.937012 
	C970.545593,779.279358 969.223938,769.789978 973.048523,759.056274 
	C977.386597,761.596741 979.031982,765.269470 979.967041,769.522156 
	C981.411377,776.091125 981.997620,782.697327 980.422546,789.283142 
	C979.752991,792.082825 978.114563,790.480957 976.430176,788.937012 
z"/>
<path fill="#586A52" opacity="1.000000" stroke="none" 
	d="
M940.053894,810.132202 
	C941.032104,804.703613 944.683716,803.931641 948.884094,804.683533 
	C954.150330,805.626160 958.812073,807.766357 962.079834,813.229126 
	C954.338379,817.882568 947.392944,814.074707 940.053894,810.132202 
z"/>
<path fill="#262519" opacity="1.000000" stroke="none" 
	d="
M1304.188721,1037.295410 
	C1294.818115,1033.847290 1288.716187,1026.550659 1284.371582,1016.771240 
	C1293.750610,1020.135742 1299.605225,1027.736328 1304.188721,1037.295410 
z"/>
<path fill="#586A52" opacity="1.000000" stroke="none" 
	d="
M1353.228027,1065.488525 
	C1354.941528,1070.256714 1354.015381,1075.200439 1353.506348,1080.805176 
	C1350.375610,1076.269287 1352.194702,1070.940796 1353.228027,1065.488525 
z"/>
<path fill="#586A52" opacity="1.000000" stroke="none" 
	d="
M1118.809814,1058.037842 
	C1115.377441,1055.243896 1115.736084,1052.822266 1120.790771,1051.435425 
	C1122.022583,1053.950317 1120.258179,1055.620361 1118.809814,1058.037842 
z"/>
<path fill="#262519" opacity="1.000000" stroke="none" 
	d="
M1311.344971,1062.460327 
	C1312.816650,1059.671997 1311.361816,1056.313232 1310.345215,1052.215576 
	C1312.252563,1054.671997 1311.120972,1058.293457 1311.344971,1062.460327 
z"/>
<path fill="#262519" opacity="1.000000" stroke="none" 
	d="
M1309.475342,1049.319824 
	C1307.782227,1048.010254 1306.659668,1045.737427 1306.190918,1042.444336 
	C1308.356812,1043.485840 1308.205322,1046.403442 1309.475342,1049.319824 
z"/>
<path fill="#262519" opacity="1.000000" stroke="none" 
	d="
M963.899170,1104.567139 
	C964.935791,1105.017212 966.058533,1106.086914 967.565491,1107.595459 
	C966.628235,1107.085083 965.306702,1106.135986 963.899170,1104.567139 
z"/>
<path fill="#586A52" opacity="1.000000" stroke="none" 
	d="
M853.963257,1157.190430 
	C854.355042,1157.594116 854.596008,1158.417114 854.718689,1159.657471 
	C854.337769,1159.253174 854.075134,1158.431641 853.963257,1157.190430 
z"/>
<path fill="#262519" opacity="1.000000" stroke="none" 
	d="
M1306.269409,1041.451416 
	C1305.560669,1041.065308 1304.973633,1040.015259 1304.186035,1038.394531 
	C1305.503906,1038.230103 1305.940430,1039.514526 1306.269409,1041.451416 
z"/>
<path fill="#262519" opacity="1.000000" stroke="none" 
	d="
M1119.048340,1042.584717 
	C1120.405518,1042.069702 1120.144897,1041.086670 1118.531982,1039.876831 
	C1118.317505,1040.487061 1118.675415,1041.313110 1119.048340,1042.584717 
z"/>
<path fill="#262519" opacity="1.000000" stroke="none" 
	d="
M1281.592407,978.844666 
	C1281.373535,978.255920 1281.070923,977.046692 1280.337524,975.362488 
	C1280.440674,975.999756 1280.974609,977.111938 1281.592407,978.844666 
z"/>
<path fill="#586A52" opacity="1.000000" stroke="none" 
	d="
M978.632202,811.399902 
	C978.970459,811.809937 980.082764,812.858154 978.086365,812.409363 
	C977.924255,812.100464 978.391968,811.629150 978.632202,811.399902 
z"/>
<path fill="#586A52" opacity="1.000000" stroke="none" 
	d="
M1046.024780,958.777771 
	C1046.546631,958.770142 1046.724731,959.176208 1046.559204,959.992065 
	C1046.017822,960.007446 1045.839722,959.603943 1046.024780,958.777771 
z"/>
<path fill="#262519" opacity="1.000000" stroke="none" 
	d="
M1310.934448,1071.022705 
	C1310.887817,1071.002563 1310.977783,1070.932251 1310.956299,1070.957275 
	C1310.934937,1070.982422 1310.981079,1071.042847 1310.934448,1071.022705 
z"/>
<path fill="#586A52" opacity="1.000000" stroke="none" 
	d="
M861.929810,1192.725342 
	C862.454651,1192.714966 862.642761,1193.136597 862.497070,1193.985718 
	C861.956299,1194.003784 861.766296,1193.585083 861.929810,1192.725342 
z"/>
<path fill="#586A52" opacity="1.000000" stroke="none" 
	d="
M964.483826,1040.341675 
	C965.030396,1039.965820 965.536621,1040.280273 966.020508,1041.276245 
	C965.481934,1041.656006 964.963684,1041.347412 964.483826,1040.341675 
z"/>
<path fill="#586A52" opacity="1.000000" stroke="none" 
	d="
M1093.465332,1154.951172 
	C1093.565186,1155.537964 1093.304077,1155.722656 1092.683105,1155.552246 
	C1092.530762,1154.949097 1092.791138,1154.733154 1093.465332,1154.951172 
z"/>
<path fill="#586A52" opacity="1.000000" stroke="none" 
	d="
M1321.127563,1062.488281 
	C1321.365234,1062.432373 1321.639771,1063.008789 1321.527100,1063.297241 
	C1321.414429,1063.585693 1320.845947,1063.234863 1320.845947,1063.234863 
	C1320.845947,1063.234863 1320.889893,1062.544189 1321.127563,1062.488281 
z"/>
<path fill="#D6B580" opacity="1.000000" stroke="none" 
	d="
M1012.406555,1060.449463 
	C1009.749451,1049.395142 1005.871704,1039.095215 1007.271729,1027.877808 
	C1008.184631,1020.563477 1009.825867,1013.579651 1013.429443,1007.142212 
	C1016.854980,1001.022949 1016.962830,1001.048401 1024.226562,1006.365356 
	C1026.854858,1008.883911 1027.314087,1011.552612 1026.234009,1014.072998 
	C1018.473633,1032.181396 1020.241882,1049.706299 1029.544800,1067.528564 
	C1029.954834,1068.188721 1030.040649,1067.990967 1029.941895,1067.947754 
	C1030.366211,1068.382812 1030.877563,1068.873291 1031.732666,1069.771240 
	C1032.091064,1070.163696 1032.125732,1069.907837 1031.997803,1069.890137 
	C1032.435303,1070.407715 1032.958252,1070.981689 1033.704834,1072.113525 
	C1035.858765,1077.618164 1041.852173,1077.473389 1045.200195,1081.644287 
	C1045.886963,1091.074585 1043.242798,1093.230591 1036.013062,1089.061157 
	C1026.428101,1083.533325 1017.855713,1076.778442 1014.424255,1064.537109 
	C1013.977356,1063.833862 1013.850037,1064.019531 1013.942627,1064.083496 
	C1013.215210,1063.223877 1013.014648,1062.058960 1012.406555,1060.449463 
z"/>
<path fill="#262519" opacity="1.000000" stroke="none" 
	d="
M1029.885498,1067.384033 
	C1013.834778,1052.538574 1011.659607,1028.451294 1024.714844,1007.392456 
	C1030.479248,1009.820923 1029.981934,1014.751526 1028.589722,1019.762817 
	C1026.717163,1026.503662 1025.825195,1033.235107 1025.463623,1040.305298 
	C1024.987915,1049.602295 1027.535645,1057.970459 1029.885498,1067.384033 
z"/>
<path fill="#262519" opacity="1.000000" stroke="none" 
	d="
M1014.186218,1064.569946 
	C1019.798462,1072.717041 1026.837524,1080.316772 1035.919067,1086.067017 
	C1040.567627,1089.010498 1043.140747,1087.740967 1045.391235,1082.643799 
	C1047.415039,1083.103882 1049.065918,1084.323364 1049.884644,1086.208740 
	C1052.100708,1091.311890 1048.997437,1095.817749 1043.499023,1095.499512 
	C1042.194946,1095.423828 1040.731323,1095.219238 1039.653564,1094.561768 
	C1028.114868,1087.523560 1017.541687,1079.605347 1014.186218,1064.569946 
z"/>
<path fill="#262519" opacity="1.000000" stroke="none" 
	d="
M1012.404358,1060.446777 
	C1012.671204,1060.972290 1013.303284,1061.955200 1013.985352,1063.542969 
	C1013.613403,1063.066406 1013.191467,1061.985352 1012.404358,1060.446777 
z"/>
<path fill="#262519" opacity="1.000000" stroke="none" 
	d="
M1031.705933,1069.797729 
	C1031.401001,1069.816284 1030.710815,1069.468872 1029.931885,1068.512939 
	C1030.335693,1068.413574 1030.828247,1068.922729 1031.705933,1069.797729 
z"/>
<path fill="#262519" opacity="1.000000" stroke="none" 
	d="
M1033.518311,1072.259521 
	C1033.315796,1072.127930 1032.660400,1071.623413 1031.937500,1070.495728 
	C1032.268433,1070.543945 1032.666870,1071.215332 1033.518311,1072.259521 
z"/>
<path fill="#D6B580" opacity="1.000000" stroke="none" 
	d="
M1232.755371,999.335693 
	C1231.982910,996.990662 1231.543335,995.024658 1231.733032,993.121521 
	C1232.119141,989.252136 1234.335938,988.238037 1237.926392,989.627014 
	C1246.292725,992.863892 1253.583374,997.664734 1260.772949,1004.933228 
	C1262.247803,1006.242371 1262.625854,1006.881287 1263.518311,1007.753967 
	C1264.446167,1008.502502 1264.904907,1008.973511 1265.775635,1009.730896 
	C1266.142578,1010.061096 1266.107300,1009.854004 1266.003662,1009.871216 
	C1266.392456,1010.388916 1266.886475,1010.887756 1267.747314,1011.764282 
	C1268.112061,1012.144043 1268.032837,1011.915405 1267.918457,1011.954712 
	C1274.711792,1019.166931 1278.021973,1028.140137 1280.552002,1038.286743 
	C1281.078979,1040.147217 1281.038452,1041.225342 1280.860718,1043.101074 
	C1282.171875,1051.352295 1282.270142,1058.737915 1279.209229,1065.828247 
	C1276.016479,1073.224121 1273.543213,1073.898560 1264.818115,1069.027100 
	C1267.184448,1057.569580 1269.592773,1046.662720 1266.663818,1034.665283 
	C1260.363403,1017.688660 1247.066528,1008.526306 1232.755371,999.335693 
z"/>
<path fill="#262519" opacity="1.000000" stroke="none" 
	d="
M1264.485107,1068.935547 
	C1272.587524,1069.485107 1272.607300,1069.491821 1275.167358,1061.998779 
	C1277.223633,1055.980347 1277.055908,1049.723755 1277.087891,1041.931030 
	C1276.416382,1030.594360 1271.589966,1022.228394 1267.846436,1012.734863 
	C1276.170044,1016.392151 1279.195435,1024.874634 1281.711670,1032.762939 
	C1285.096802,1043.374634 1287.146729,1054.619019 1284.206665,1065.882324 
	C1282.992798,1070.531860 1282.473022,1076.281860 1276.271973,1077.229004 
	C1270.431519,1078.121094 1267.342896,1074.031494 1264.485107,1068.935547 
z"/>
<path fill="#262519" opacity="1.000000" stroke="none" 
	d="
M1232.501221,999.463745 
	C1246.488892,1000.538330 1254.777344,1010.176453 1261.553223,1021.534912 
	C1263.553833,1024.888428 1264.530396,1028.852905 1266.067261,1033.281494 
	C1263.916992,1030.734375 1261.805054,1027.345337 1259.407227,1024.172607 
	C1254.763794,1018.028931 1249.655518,1012.209045 1242.180908,1009.553284 
	C1237.301147,1007.819336 1234.439697,1004.676208 1232.501221,999.463745 
z"/>
<path fill="#262519" opacity="1.000000" stroke="none" 
	d="
M1265.645020,1009.884888 
	C1265.565430,1009.698853 1264.988281,1009.336548 1264.221802,1008.481018 
	C1264.404175,1008.561401 1264.775879,1009.135010 1265.645020,1009.884888 
z"/>
<path fill="#262519" opacity="1.000000" stroke="none" 
	d="
M1261.614014,1005.902649 
	C1261.869629,1005.603455 1261.108521,1005.275940 1260.912109,1005.320618 
	C1260.715576,1005.365295 1260.701050,1006.028809 1260.701050,1006.028809 
	C1260.701050,1006.028809 1261.358398,1006.201843 1261.614014,1005.902649 
z"/>
<path fill="#262519" opacity="1.000000" stroke="none" 
	d="
M1267.691895,1011.819702 
	C1267.464966,1011.778870 1266.817871,1011.413757 1266.035400,1010.468506 
	C1266.357300,1010.424072 1266.814453,1010.959717 1267.691895,1011.819702 
z"/>
<path fill="#586A52" opacity="1.000000" stroke="none" 
	d="
M1276.918579,1040.578735 
	C1277.524658,1040.580566 1277.668579,1040.899902 1277.376709,1041.534180 
	C1276.742310,1041.565063 1276.580811,1041.247437 1276.918579,1040.578735 
z"/>
</svg>