<?xml version="1.0" standalone="no"?>
<!DOCTYPE svg PUBLIC "-//W3C//DTD SVG 20010904//EN"
 "http://www.w3.org/TR/2001/REC-SVG-20010904/DTD/svg10.dtd">
<svg version="1.0" xmlns="http://www.w3.org/2000/svg"
 width="640.000000pt" height="1280.000000pt" viewBox="0 0 640.000000 1280.000000"
 preserveAspectRatio="xMidYMid meet">
<metadata>
Created by potrace 1.15, written by Peter Selinger 2001-2017
</metadata>
<g transform="translate(0.000000,1280.000000) scale(0.100000,-0.100000)"
fill="#000000" stroke="none">
<path d="M3100 12794 c-224 -15 -511 -99 -618 -180 -23 -18 -30 -30 -24 -36 7
-7 19 -4 38 11 15 11 30 21 35 21 4 0 6 -604 5 -1342 -2 -1230 -4 -1348 -20
-1402 -36 -126 -119 -241 -249 -344 -34 -28 -152 -110 -262 -183 -256 -169
-373 -259 -472 -362 -148 -154 -226 -295 -285 -517 l-23 -85 -3 -3425 c-2
-2451 0 -3470 8 -3585 28 -400 93 -630 230 -817 57 -78 127 -136 249 -205 356
-203 751 -307 1273 -332 484 -24 950 31 1310 155 148 51 409 181 504 251 206
154 317 421 366 883 16 156 24 6859 8 7027 -33 350 -174 600 -470 836 -47 37
-141 107 -210 154 -298 206 -417 314 -483 441 -69 130 -66 86 -77 1255 -6 582
-8 1062 -5 1067 3 4 13 6 24 3 18 -4 19 8 26 270 4 152 4 280 1 285 -8 13
-164 73 -262 102 -138 39 -436 66 -614 54z"/>
</g>
</svg>
